<svg xmlns="http://www.w3.org/2000/svg" viewBox="0 0 512 512"><path fill="currentColor" d="M219 539Q129 539 64.5 474.5Q0 410 0.0 320.0Q0 230 64.0 165.5Q128 101 218 101Q307 101 372.0 166.0Q437 231 437 320Q437 410 372.5 474.5Q308 539 219 539ZM90.0 449.0Q143 502 219.0 502.0Q295 502 348.0 449.0Q401 396 401.0 320.0Q401 244 347.5 191.0Q294 138 218.0 138.0Q142 138 89.5 191.0Q37 244 37.0 320.0Q37 396 90.0 449.0ZM106 343Q91 343 91 328Q91 322 95.5 317.5Q100 313 106 313H204V184Q204 169 218 169Q224 169 228.5 173.5Q233 178 233 184V328Q233 343 218 343Z"/></svg>
