<svg xmlns="http://www.w3.org/2000/svg" viewBox="0 0 512 512"><path fill="currentColor" d="M52 523Q29 523 14.5 508.0Q0 493 0 471Q0 456 7 445L176 143Q191 117 221.0 117.0Q251 117 266 143L434 445Q441 456 441 471Q441 493 426.5 508.0Q412 523 389 523ZM221 376Q238 376 238 358L242 253Q242 244 235.5 238.0Q229 232 220 232Q200 232 200 252L203 358Q203 376 221 376ZM204.5 448.5Q212 455 221.0 455.0Q230 455 237.5 448.5Q245 442 245.0 432.0Q245 422 238.0 415.5Q231 409 221.0 409.0Q211 409 204.0 415.5Q197 422 197.0 432.0Q197 442 204.5 448.5Z"/></svg>
